M48
METRIC,LZ,000.000
;FILE_FORMAT=3:3
;TYPE=PLATED
;Layer: Drill PTH
;EasyEDA v6.4.21, 2021-08-29T16:01:07+05:30
;090134bdd6244694b511e6b7b2fc0774,3c98fd548b654d899cd366febee9e214,10
;Gerber Generator version 0.2
;Holesize 1 = 0.813 mm
T01C0.813
;Holesize 2 = 0.889 mm
T02C0.889
;Holesize 3 = 0.900 mm
T03C0.900
;Holesize 4 = 0.901 mm
T04C0.901
;Holesize 5 = 0.915 mm
T05C0.915
%
G05
G90
T01
X049530Y003023
X049530Y000533
X049530Y-013106
X049530Y-015596
X032995Y-025527
X030505Y-025527
X014298Y-025524
X011809Y-025524
T02
X-001651Y025527
X-004191Y025527
X-006731Y025527
X-009271Y025527
X003175Y-001397
X005715Y-001397
X008255Y-001397
X010795Y-001397
X013335Y-001397
X050673Y024384
X048133Y024384
X045593Y024384
X043053Y024384
T03
X-007569Y-015621
X-001067Y-015621
T04
X042324Y-005080
X049624Y-005080
X042197Y-020447
X049497Y-020447
X026543Y-025367
X026543Y-018067
X007719Y-025364
X007719Y-018064
T05
X018542Y023241
X018542Y020701
X018542Y018161
X018542Y015621
X018542Y013081
X018542Y010541
X018542Y008001
X018542Y005461
X018542Y002921
X018542Y000381
X018542Y-002159
X018542Y-004699
X018542Y-007239
X018542Y-009779
X018542Y-012319
X033782Y-012319
X033782Y-009779
X033782Y-007239
X033782Y-004699
X033782Y-002159
X033782Y000381
X033782Y002921
X033782Y005461
X033782Y008001
X033782Y010541
X033782Y013081
X033782Y015621
X033782Y018161
X033782Y020701
X033782Y023241
M30
