G04 Layer: BottomLayer*
G04 EasyEDA v6.4.21, 2021-08-29T16:01:07+05:30*
G04 090134bdd6244694b511e6b7b2fc0774,3c98fd548b654d899cd366febee9e214,10*
G04 Gerber Generator version 0.2*
G04 Scale: 100 percent, Rotated: No, Reflected: No *
G04 Dimensions in millimeters *
G04 leading zeros omitted , absolute positions ,4 integer and 5 decimal *
%FSLAX45Y45*%
%MOMM*%

%ADD10C,0.2540*%
%ADD11C,1.5240*%
%ADD12R,1.5748X1.5748*%
%ADD13C,1.5748*%
%ADD14R,1.2116X1.2116*%
%ADD15C,1.7780*%

%LPD*%
D10*
X-165100Y2552700D02*
G01*
X-165100Y1308100D01*
X1854200Y1308100D01*
X1429765Y-2552420D02*
G01*
X2108200Y-1873986D01*
X2108200Y-939800D01*
X1892300Y-939800D01*
X1854200Y-977900D01*
D11*
G01*
X4232402Y-508000D03*
G01*
X4962423Y-508000D03*
G01*
X4219702Y-2044700D03*
G01*
X4949723Y-2044700D03*
G01*
X2654300Y-2536723D03*
G01*
X2654300Y-1806702D03*
G01*
X771911Y-2536433D03*
G01*
X771911Y-1806412D03*
G01*
X1854200Y2324100D03*
G01*
X1854200Y2070100D03*
G01*
X1854200Y1816100D03*
G01*
X1854200Y1562100D03*
G01*
X1854200Y1308100D03*
G01*
X1854200Y1054100D03*
G01*
X1854200Y800100D03*
G01*
X1854200Y546100D03*
G01*
X1854200Y292100D03*
G01*
X1854200Y38100D03*
G01*
X1854200Y-215900D03*
G01*
X1854200Y-469900D03*
G01*
X1854200Y-723900D03*
G01*
X1854200Y-977900D03*
G01*
X1854200Y-1231900D03*
G01*
X3378200Y-1231900D03*
G01*
X3378200Y-977900D03*
G01*
X3378200Y-723900D03*
G01*
X3378200Y-469900D03*
G01*
X3378200Y-215900D03*
G01*
X3378200Y38100D03*
G01*
X3378200Y292100D03*
G01*
X3378200Y546100D03*
G01*
X3378200Y800100D03*
G01*
X3378200Y1054100D03*
G01*
X3378200Y1308100D03*
G01*
X3378200Y1562100D03*
G01*
X3378200Y1816100D03*
G01*
X3378200Y2070100D03*
G01*
X3378200Y2324100D03*
D12*
G01*
X-165100Y2552700D03*
D13*
G01*
X-419100Y2552700D03*
G01*
X-673100Y2552700D03*
G01*
X-927100Y2552700D03*
G36*
X4892420Y362838D02*
G01*
X5013579Y362838D01*
X5013579Y241680D01*
X4892420Y241680D01*
G37*
G36*
X4892420Y113919D02*
G01*
X5013579Y113919D01*
X5013579Y-7238D01*
X4892420Y-7238D01*
G37*
G36*
X4892420Y-1250061D02*
G01*
X5013579Y-1250061D01*
X5013579Y-1371219D01*
X4892420Y-1371219D01*
G37*
G36*
X4892420Y-1498980D02*
G01*
X5013579Y-1498980D01*
X5013579Y-1620138D01*
X4892420Y-1620138D01*
G37*
D14*
G01*
X3299459Y-2552700D03*
G01*
X3050540Y-2552700D03*
G01*
X1429771Y-2552410D03*
G01*
X1180851Y-2552410D03*
D13*
G01*
X317500Y-139700D03*
G01*
X571500Y-139700D03*
G01*
X825500Y-139700D03*
G01*
X1079500Y-139700D03*
D12*
G01*
X1333500Y-139700D03*
G01*
X5067300Y2438400D03*
D13*
G01*
X4813300Y2438400D03*
G01*
X4559300Y2438400D03*
G01*
X4305300Y2438400D03*
D15*
G01*
X-756920Y-1562100D03*
G01*
X-106679Y-1562100D03*
M02*
