G04 Layer: TopSilkLayer*
G04 EasyEDA v6.4.21, 2021-08-29T16:01:07+05:30*
G04 090134bdd6244694b511e6b7b2fc0774,3c98fd548b654d899cd366febee9e214,10*
G04 Gerber Generator version 0.2*
G04 Scale: 100 percent, Rotated: No, Reflected: No *
G04 Dimensions in millimeters *
G04 leading zeros omitted , absolute positions ,4 integer and 5 decimal *
%FSLAX45Y45*%
%MOMM*%

%ADD10C,0.2540*%
%ADD16C,0.2032*%
%ADD17C,0.2030*%
%ADD18C,0.1524*%

%LPD*%
D18*
X4533900Y-227571D02*
G01*
X4533900Y-336537D01*
X4533900Y-227571D02*
G01*
X4580636Y-227571D01*
X4596129Y-232651D01*
X4601463Y-237985D01*
X4606543Y-248399D01*
X4606543Y-258813D01*
X4601463Y-269227D01*
X4596129Y-274307D01*
X4580636Y-279387D01*
X4533900Y-279387D01*
X4570222Y-279387D02*
G01*
X4606543Y-336537D01*
X4640834Y-248399D02*
G01*
X4651247Y-243065D01*
X4666995Y-227571D01*
X4666995Y-336537D01*
X4508500Y-2221471D02*
G01*
X4508500Y-2330437D01*
X4508500Y-2221471D02*
G01*
X4555236Y-2221471D01*
X4570729Y-2226551D01*
X4576063Y-2231885D01*
X4581143Y-2242299D01*
X4581143Y-2252713D01*
X4576063Y-2263127D01*
X4570729Y-2268207D01*
X4555236Y-2273287D01*
X4508500Y-2273287D01*
X4544822Y-2273287D02*
G01*
X4581143Y-2330437D01*
X4620768Y-2247379D02*
G01*
X4620768Y-2242299D01*
X4625847Y-2231885D01*
X4631181Y-2226551D01*
X4641595Y-2221471D01*
X4662170Y-2221471D01*
X4672584Y-2226551D01*
X4677918Y-2231885D01*
X4682997Y-2242299D01*
X4682997Y-2252713D01*
X4677918Y-2263127D01*
X4667504Y-2278621D01*
X4615434Y-2330437D01*
X4688331Y-2330437D01*
X2324100Y-2119871D02*
G01*
X2324100Y-2228837D01*
X2324100Y-2119871D02*
G01*
X2370836Y-2119871D01*
X2386329Y-2124951D01*
X2391663Y-2130285D01*
X2396743Y-2140699D01*
X2396743Y-2151113D01*
X2391663Y-2161527D01*
X2386329Y-2166607D01*
X2370836Y-2171687D01*
X2324100Y-2171687D01*
X2360422Y-2171687D02*
G01*
X2396743Y-2228837D01*
X2441447Y-2119871D02*
G01*
X2498597Y-2119871D01*
X2467609Y-2161527D01*
X2483104Y-2161527D01*
X2493518Y-2166607D01*
X2498597Y-2171687D01*
X2503931Y-2187435D01*
X2503931Y-2197849D01*
X2498597Y-2213343D01*
X2488184Y-2223757D01*
X2472690Y-2228837D01*
X2457195Y-2228837D01*
X2441447Y-2223757D01*
X2436368Y-2218677D01*
X2431034Y-2208263D01*
X416311Y-2119607D02*
G01*
X416311Y-2228573D01*
X416311Y-2119607D02*
G01*
X463047Y-2119607D01*
X478541Y-2124687D01*
X483875Y-2130021D01*
X488955Y-2140435D01*
X488955Y-2150849D01*
X483875Y-2161263D01*
X478541Y-2166343D01*
X463047Y-2171423D01*
X416311Y-2171423D01*
X452633Y-2171423D02*
G01*
X488955Y-2228573D01*
X575315Y-2119607D02*
G01*
X523245Y-2192251D01*
X601223Y-2192251D01*
X575315Y-2119607D02*
G01*
X575315Y-2228573D01*
X321056Y2693415D02*
G01*
X279400Y2584450D01*
X321056Y2693415D02*
G01*
X362458Y2584450D01*
X294893Y2620771D02*
G01*
X346963Y2620771D01*
X396747Y2693415D02*
G01*
X396747Y2584450D01*
X396747Y2693415D02*
G01*
X443484Y2693415D01*
X459231Y2688336D01*
X464311Y2683002D01*
X469645Y2672587D01*
X469645Y2662173D01*
X464311Y2651760D01*
X459231Y2646679D01*
X443484Y2641600D01*
X396747Y2641600D01*
X433070Y2641600D02*
G01*
X469645Y2584450D01*
X503936Y2693415D02*
G01*
X503936Y2584450D01*
X503936Y2693415D02*
G01*
X540258Y2693415D01*
X555752Y2688336D01*
X566165Y2677921D01*
X571500Y2667507D01*
X576579Y2651760D01*
X576579Y2625852D01*
X571500Y2610357D01*
X566165Y2599944D01*
X555752Y2589529D01*
X540258Y2584450D01*
X503936Y2584450D01*
X610870Y2693415D02*
G01*
X610870Y2615437D01*
X615950Y2599944D01*
X626363Y2589529D01*
X642111Y2584450D01*
X652525Y2584450D01*
X668020Y2589529D01*
X678434Y2599944D01*
X683513Y2615437D01*
X683513Y2693415D01*
X717804Y2693415D02*
G01*
X717804Y2584450D01*
X752093Y2693415D02*
G01*
X752093Y2584450D01*
X752093Y2693415D02*
G01*
X824991Y2584450D01*
X824991Y2693415D02*
G01*
X824991Y2584450D01*
X890270Y2693415D02*
G01*
X880109Y2688336D01*
X869695Y2677921D01*
X864361Y2667507D01*
X859281Y2651760D01*
X859281Y2625852D01*
X864361Y2610357D01*
X869695Y2599944D01*
X880109Y2589529D01*
X890270Y2584450D01*
X911097Y2584450D01*
X921511Y2589529D01*
X931925Y2599944D01*
X937259Y2610357D01*
X942340Y2625852D01*
X942340Y2651760D01*
X937259Y2667507D01*
X931925Y2677921D01*
X921511Y2688336D01*
X911097Y2693415D01*
X890270Y2693415D01*
X976629Y2547873D02*
G01*
X1070102Y2547873D01*
X1104391Y2693415D02*
G01*
X1104391Y2584450D01*
X1104391Y2693415D02*
G01*
X1177290Y2584450D01*
X1177290Y2693415D02*
G01*
X1177290Y2584450D01*
X1252981Y2693415D02*
G01*
X1211579Y2584450D01*
X1252981Y2693415D02*
G01*
X1294638Y2584450D01*
X1227074Y2620771D02*
G01*
X1278890Y2620771D01*
X1328927Y2693415D02*
G01*
X1328927Y2584450D01*
X1328927Y2693415D02*
G01*
X1401572Y2584450D01*
X1401572Y2693415D02*
G01*
X1401572Y2584450D01*
X1467104Y2693415D02*
G01*
X1456690Y2688336D01*
X1446275Y2677921D01*
X1441195Y2667507D01*
X1435861Y2651760D01*
X1435861Y2625852D01*
X1441195Y2610357D01*
X1446275Y2599944D01*
X1456690Y2589529D01*
X1467104Y2584450D01*
X1487931Y2584450D01*
X1498345Y2589529D01*
X1508759Y2599944D01*
X1513840Y2610357D01*
X1518920Y2625852D01*
X1518920Y2651760D01*
X1513840Y2667507D01*
X1508759Y2677921D01*
X1498345Y2688336D01*
X1487931Y2693415D01*
X1467104Y2693415D01*
X-838200Y2236215D02*
G01*
X-838200Y2127250D01*
X-765555Y2236215D02*
G01*
X-765555Y2127250D01*
X-838200Y2184400D02*
G01*
X-765555Y2184400D01*
X-653287Y2210307D02*
G01*
X-658368Y2220721D01*
X-668781Y2231136D01*
X-679195Y2236215D01*
X-700023Y2236215D01*
X-710437Y2231136D01*
X-720852Y2220721D01*
X-725931Y2210307D01*
X-731265Y2194560D01*
X-731265Y2168652D01*
X-725931Y2153157D01*
X-720852Y2142744D01*
X-710437Y2132329D01*
X-700023Y2127250D01*
X-679195Y2127250D01*
X-668781Y2132329D01*
X-658368Y2142744D01*
X-653287Y2153157D01*
X-618997Y2090673D02*
G01*
X-525526Y2090673D01*
X-459994Y2236215D02*
G01*
X-475487Y2231136D01*
X-485902Y2215387D01*
X-491236Y2189479D01*
X-491236Y2173986D01*
X-485902Y2147823D01*
X-475487Y2132329D01*
X-459994Y2127250D01*
X-449579Y2127250D01*
X-434086Y2132329D01*
X-423671Y2147823D01*
X-418337Y2173986D01*
X-418337Y2189479D01*
X-423671Y2215387D01*
X-434086Y2231136D01*
X-449579Y2236215D01*
X-459994Y2236215D01*
X-321818Y2220721D02*
G01*
X-326897Y2231136D01*
X-342645Y2236215D01*
X-353060Y2236215D01*
X-368554Y2231136D01*
X-378968Y2215387D01*
X-384047Y2189479D01*
X-384047Y2163571D01*
X-378968Y2142744D01*
X-368554Y2132329D01*
X-353060Y2127250D01*
X-347726Y2127250D01*
X-332231Y2132329D01*
X-321818Y2142744D01*
X-316484Y2158237D01*
X-316484Y2163571D01*
X-321818Y2179065D01*
X-332231Y2189479D01*
X-347726Y2194560D01*
X-353060Y2194560D01*
X-368554Y2189479D01*
X-378968Y2179065D01*
X-384047Y2163571D01*
X4610100Y648715D02*
G01*
X4610100Y539750D01*
X4610100Y539750D02*
G01*
X4672329Y539750D01*
X4706620Y648715D02*
G01*
X4706620Y539750D01*
X4706620Y648715D02*
G01*
X4774184Y648715D01*
X4706620Y596900D02*
G01*
X4748275Y596900D01*
X4706620Y539750D02*
G01*
X4774184Y539750D01*
X4808474Y648715D02*
G01*
X4808474Y539750D01*
X4808474Y648715D02*
G01*
X4845050Y648715D01*
X4860543Y643636D01*
X4870958Y633221D01*
X4876038Y622807D01*
X4881372Y607060D01*
X4881372Y581152D01*
X4876038Y565657D01*
X4870958Y555244D01*
X4860543Y544829D01*
X4845050Y539750D01*
X4808474Y539750D01*
X4915661Y627887D02*
G01*
X4926075Y633221D01*
X4941570Y648715D01*
X4941570Y539750D01*
X4899659Y-150113D02*
G01*
X4899659Y-198628D01*
X4931918Y-150113D02*
G01*
X4899659Y-182371D01*
X4911090Y-170942D02*
G01*
X4931918Y-198628D01*
X4572000Y-951484D02*
G01*
X4572000Y-1060450D01*
X4572000Y-1060450D02*
G01*
X4634229Y-1060450D01*
X4668520Y-951484D02*
G01*
X4668520Y-1060450D01*
X4668520Y-951484D02*
G01*
X4736084Y-951484D01*
X4668520Y-1003300D02*
G01*
X4710175Y-1003300D01*
X4668520Y-1060450D02*
G01*
X4736084Y-1060450D01*
X4770374Y-951484D02*
G01*
X4770374Y-1060450D01*
X4770374Y-951484D02*
G01*
X4806950Y-951484D01*
X4822443Y-956563D01*
X4832858Y-966978D01*
X4837938Y-977392D01*
X4843272Y-993139D01*
X4843272Y-1019047D01*
X4837938Y-1034542D01*
X4832858Y-1044955D01*
X4822443Y-1055370D01*
X4806950Y-1060450D01*
X4770374Y-1060450D01*
X4882641Y-977392D02*
G01*
X4882641Y-972312D01*
X4887975Y-961897D01*
X4893056Y-956563D01*
X4903470Y-951484D01*
X4924297Y-951484D01*
X4934711Y-956563D01*
X4939791Y-961897D01*
X4945125Y-972312D01*
X4945125Y-982726D01*
X4939791Y-993139D01*
X4929377Y-1008634D01*
X4877561Y-1060450D01*
X4950206Y-1060450D01*
X4899659Y-1763013D02*
G01*
X4899659Y-1811528D01*
X4931918Y-1763013D02*
G01*
X4899659Y-1795271D01*
X4911090Y-1783842D02*
G01*
X4931918Y-1811528D01*
X2984500Y-2107184D02*
G01*
X2984500Y-2216150D01*
X2984500Y-2216150D02*
G01*
X3046729Y-2216150D01*
X3081020Y-2107184D02*
G01*
X3081020Y-2216150D01*
X3081020Y-2107184D02*
G01*
X3148584Y-2107184D01*
X3081020Y-2159000D02*
G01*
X3122675Y-2159000D01*
X3081020Y-2216150D02*
G01*
X3148584Y-2216150D01*
X3182874Y-2107184D02*
G01*
X3182874Y-2216150D01*
X3182874Y-2107184D02*
G01*
X3219450Y-2107184D01*
X3234943Y-2112263D01*
X3245358Y-2122678D01*
X3250438Y-2133092D01*
X3255772Y-2148839D01*
X3255772Y-2174747D01*
X3250438Y-2190242D01*
X3245358Y-2200655D01*
X3234943Y-2211070D01*
X3219450Y-2216150D01*
X3182874Y-2216150D01*
X3300475Y-2107184D02*
G01*
X3357625Y-2107184D01*
X3326384Y-2148839D01*
X3341877Y-2148839D01*
X3352291Y-2153920D01*
X3357625Y-2159000D01*
X3362706Y-2174747D01*
X3362706Y-2185162D01*
X3357625Y-2200655D01*
X3347211Y-2211070D01*
X3331463Y-2216150D01*
X3315970Y-2216150D01*
X3300475Y-2211070D01*
X3295141Y-2205989D01*
X3290061Y-2195576D01*
X2847086Y-2499360D02*
G01*
X2798572Y-2499360D01*
X2847086Y-2531618D02*
G01*
X2814827Y-2499360D01*
X2826258Y-2510789D02*
G01*
X2798572Y-2531618D01*
X1073922Y-2119304D02*
G01*
X1073922Y-2228270D01*
X1073922Y-2228270D02*
G01*
X1136152Y-2228270D01*
X1170442Y-2119304D02*
G01*
X1170442Y-2228270D01*
X1170442Y-2119304D02*
G01*
X1238006Y-2119304D01*
X1170442Y-2171120D02*
G01*
X1212098Y-2171120D01*
X1170442Y-2228270D02*
G01*
X1238006Y-2228270D01*
X1272296Y-2119304D02*
G01*
X1272296Y-2228270D01*
X1272296Y-2119304D02*
G01*
X1308872Y-2119304D01*
X1324366Y-2124384D01*
X1334780Y-2134798D01*
X1339860Y-2145212D01*
X1345194Y-2160960D01*
X1345194Y-2186868D01*
X1339860Y-2202362D01*
X1334780Y-2212776D01*
X1324366Y-2223190D01*
X1308872Y-2228270D01*
X1272296Y-2228270D01*
X1431300Y-2119304D02*
G01*
X1379484Y-2191948D01*
X1457462Y-2191948D01*
X1431300Y-2119304D02*
G01*
X1431300Y-2228270D01*
X977397Y-2499070D02*
G01*
X928883Y-2499070D01*
X977397Y-2531328D02*
G01*
X945139Y-2499070D01*
X956569Y-2510500D02*
G01*
X928883Y-2531328D01*
X457200Y-354584D02*
G01*
X457200Y-463550D01*
X457200Y-354584D02*
G01*
X498856Y-463550D01*
X540258Y-354584D02*
G01*
X498856Y-463550D01*
X540258Y-354584D02*
G01*
X540258Y-463550D01*
X616204Y-354584D02*
G01*
X574547Y-463550D01*
X616204Y-354584D02*
G01*
X657859Y-463550D01*
X590295Y-427228D02*
G01*
X642111Y-427228D01*
X692150Y-354584D02*
G01*
X764793Y-463550D01*
X764793Y-354584D02*
G01*
X692150Y-463550D01*
X861313Y-370078D02*
G01*
X856234Y-359663D01*
X840740Y-354584D01*
X830325Y-354584D01*
X814577Y-359663D01*
X804163Y-375412D01*
X799084Y-401320D01*
X799084Y-427228D01*
X804163Y-448055D01*
X814577Y-458470D01*
X830325Y-463550D01*
X835406Y-463550D01*
X850900Y-458470D01*
X861313Y-448055D01*
X866647Y-432562D01*
X866647Y-427228D01*
X861313Y-411734D01*
X850900Y-401320D01*
X835406Y-396239D01*
X830325Y-396239D01*
X814577Y-401320D01*
X804163Y-411734D01*
X799084Y-427228D01*
X963168Y-370078D02*
G01*
X958088Y-359663D01*
X942340Y-354584D01*
X932179Y-354584D01*
X916431Y-359663D01*
X906018Y-375412D01*
X900938Y-401320D01*
X900938Y-427228D01*
X906018Y-448055D01*
X916431Y-458470D01*
X932179Y-463550D01*
X937259Y-463550D01*
X952754Y-458470D01*
X963168Y-448055D01*
X968502Y-432562D01*
X968502Y-427228D01*
X963168Y-411734D01*
X952754Y-401320D01*
X937259Y-396239D01*
X932179Y-396239D01*
X916431Y-401320D01*
X906018Y-411734D01*
X900938Y-427228D01*
X1075436Y-354584D02*
G01*
X1023620Y-463550D01*
X1002791Y-354584D02*
G01*
X1075436Y-354584D01*
X1172209Y-354584D02*
G01*
X1120140Y-354584D01*
X1115059Y-401320D01*
X1120140Y-396239D01*
X1135634Y-390905D01*
X1151381Y-390905D01*
X1166875Y-396239D01*
X1177290Y-406400D01*
X1182370Y-422147D01*
X1182370Y-432562D01*
X1177290Y-448055D01*
X1166875Y-458470D01*
X1151381Y-463550D01*
X1135634Y-463550D01*
X1120140Y-458470D01*
X1115059Y-453389D01*
X1109725Y-442976D01*
X3765041Y2528315D02*
G01*
X3754627Y2523236D01*
X3744213Y2512821D01*
X3738879Y2502407D01*
X3733800Y2486660D01*
X3733800Y2460752D01*
X3738879Y2445257D01*
X3744213Y2434844D01*
X3754627Y2424429D01*
X3765041Y2419350D01*
X3785870Y2419350D01*
X3796029Y2424429D01*
X3806443Y2434844D01*
X3811777Y2445257D01*
X3816858Y2460752D01*
X3816858Y2486660D01*
X3811777Y2502407D01*
X3806443Y2512821D01*
X3796029Y2523236D01*
X3785870Y2528315D01*
X3765041Y2528315D01*
X3851147Y2528315D02*
G01*
X3851147Y2419350D01*
X3851147Y2419350D02*
G01*
X3913631Y2419350D01*
X3947922Y2528315D02*
G01*
X3947922Y2419350D01*
X3947922Y2528315D02*
G01*
X4015486Y2528315D01*
X3947922Y2476500D02*
G01*
X3989324Y2476500D01*
X3947922Y2419350D02*
G01*
X4015486Y2419350D01*
X4049775Y2528315D02*
G01*
X4049775Y2419350D01*
X4049775Y2528315D02*
G01*
X4086097Y2528315D01*
X4101591Y2523236D01*
X4112006Y2512821D01*
X4117340Y2502407D01*
X4122420Y2486660D01*
X4122420Y2460752D01*
X4117340Y2445257D01*
X4112006Y2434844D01*
X4101591Y2424429D01*
X4086097Y2419350D01*
X4049775Y2419350D01*
X-511555Y-2249678D02*
G01*
X-521970Y-2239263D01*
X-537463Y-2234184D01*
X-558292Y-2234184D01*
X-573786Y-2239263D01*
X-584200Y-2249678D01*
X-584200Y-2260092D01*
X-579120Y-2270505D01*
X-573786Y-2275839D01*
X-563371Y-2280920D01*
X-532129Y-2291334D01*
X-521970Y-2296413D01*
X-516636Y-2301747D01*
X-511555Y-2312162D01*
X-511555Y-2327655D01*
X-521970Y-2338070D01*
X-537463Y-2343150D01*
X-558292Y-2343150D01*
X-573786Y-2338070D01*
X-584200Y-2327655D01*
X-399287Y-2260092D02*
G01*
X-404368Y-2249678D01*
X-414781Y-2239263D01*
X-425195Y-2234184D01*
X-446023Y-2234184D01*
X-456437Y-2239263D01*
X-466852Y-2249678D01*
X-471931Y-2260092D01*
X-477265Y-2275839D01*
X-477265Y-2301747D01*
X-471931Y-2317242D01*
X-466852Y-2327655D01*
X-456437Y-2338070D01*
X-446023Y-2343150D01*
X-425195Y-2343150D01*
X-414781Y-2338070D01*
X-404368Y-2327655D01*
X-399287Y-2317242D01*
X-399287Y-2301747D01*
X-425195Y-2301747D02*
G01*
X-399287Y-2301747D01*
X-364997Y-2255012D02*
G01*
X-354584Y-2249678D01*
X-339089Y-2234184D01*
X-339089Y-2343150D01*
D10*
X4419600Y-508000D02*
G01*
X4356100Y-508000D01*
X4775200Y-508000D02*
G01*
X4838700Y-508000D01*
X4762411Y-602995D02*
G01*
X4432414Y-602995D01*
X4432414Y-413004D01*
X4762411Y-413004D01*
X4762411Y-602995D01*
X4406900Y-2044700D02*
G01*
X4343400Y-2044700D01*
X4762500Y-2044700D02*
G01*
X4826000Y-2044700D01*
X4749711Y-2139695D02*
G01*
X4419714Y-2139695D01*
X4419714Y-1949704D01*
X4749711Y-1949704D01*
X4749711Y-2139695D01*
X2654300Y-2349500D02*
G01*
X2654300Y-2413000D01*
X2654300Y-1993900D02*
G01*
X2654300Y-1930400D01*
X2749295Y-2006688D02*
G01*
X2749295Y-2336685D01*
X2559304Y-2336685D01*
X2559304Y-2006688D01*
X2749295Y-2006688D01*
X771911Y-2349210D02*
G01*
X771911Y-2412710D01*
X771911Y-1993610D02*
G01*
X771911Y-1930110D01*
X866907Y-2006399D02*
G01*
X866907Y-2336396D01*
X676915Y-2336396D01*
X676915Y-2006399D01*
X866907Y-2006399D01*
X1716201Y2706090D02*
G01*
X3516198Y2706090D01*
X3516198Y-1613915D01*
X1716201Y-1613915D01*
X1716201Y2706090D01*
D16*
X-1054100Y2425700D02*
G01*
X-1054100Y2679700D01*
X-38100Y2679700D01*
X-38100Y2425700D01*
X-228600Y2425700D01*
D17*
X-1054100Y2425700D02*
G01*
X-228600Y2425700D01*
D10*
X4188459Y426720D02*
G01*
X4706620Y426720D01*
X4188459Y-71120D02*
G01*
X4706620Y-71120D01*
X4706620Y-71120D02*
G01*
X4808220Y-71120D01*
X4706620Y467360D02*
G01*
X4706620Y-71120D01*
X4808220Y467360D02*
G01*
X4808220Y-71120D01*
X4706620Y467360D02*
G01*
X4808220Y467360D01*
X4188459Y-1186179D02*
G01*
X4706620Y-1186179D01*
X4188459Y-1684020D02*
G01*
X4706620Y-1684020D01*
X4706620Y-1684020D02*
G01*
X4808220Y-1684020D01*
X4706620Y-1145539D02*
G01*
X4706620Y-1684020D01*
X4808220Y-1145539D02*
G01*
X4808220Y-1684020D01*
X4706620Y-1145539D02*
G01*
X4808220Y-1145539D01*
X3423920Y-1788160D02*
G01*
X3423920Y-2306320D01*
X2926079Y-1788160D02*
G01*
X2926079Y-2306320D01*
X2926079Y-2306320D02*
G01*
X2926079Y-2407920D01*
X3464559Y-2306320D02*
G01*
X2926079Y-2306320D01*
X3464559Y-2407920D02*
G01*
X2926079Y-2407920D01*
X3464559Y-2306320D02*
G01*
X3464559Y-2407920D01*
X1554231Y-1787870D02*
G01*
X1554231Y-2306030D01*
X1056391Y-1787870D02*
G01*
X1056391Y-2306030D01*
X1056391Y-2306030D02*
G01*
X1056391Y-2407630D01*
X1594871Y-2306030D02*
G01*
X1056391Y-2306030D01*
X1594871Y-2407630D02*
G01*
X1056391Y-2407630D01*
X1594871Y-2306030D02*
G01*
X1594871Y-2407630D01*
D16*
X1270000Y-266700D02*
G01*
X1460500Y-266700D01*
X1460500Y-12700D01*
X190500Y-12700D01*
X190500Y-266700D01*
D17*
X190500Y-266700D02*
G01*
X1270000Y-266700D01*
D16*
X4178300Y2311400D02*
G01*
X4178300Y2565400D01*
X5194300Y2565400D01*
X5194300Y2311400D01*
X5003800Y2311400D01*
D17*
X4178300Y2311400D02*
G01*
X5003800Y2311400D01*
D10*
G75*
G01*
X4187462Y427800D02*
G03*
X4187462Y-72200I0J-250000D01*
G75*
G01*
X4187462Y-1185100D02*
G03*
X4187462Y-1685100I0J-250000D01*
G75*
G01*
X3424999Y-1787162D02*
G03*
X2925001Y-1787162I-249999J0D01*
G75*
G01*
X1555311Y-1786872D02*
G03*
X1055312Y-1786872I-250000J0D01*
G75*
G01
X2044700Y2463800D02*
G03X2044700Y2463800I-63500J0D01*
G75*
G01
X157480Y-1562100D02*
G03X157480Y-1562100I-589280J0D01*
M02*
